<svg width="100%" height="auto" viewBox="0 0 1200 1200" fill="none" xmlns="http://www.w3.org/2000/svg">
<circle cx="600" cy="600" r="575" fill="#131313"/>
<path d="M570 950L787.5 525H637.5V250L412.5 675H570V950ZM600 1100C530.833 1100 465.833 1086.88 405 1060.62C344.167 1034.38 291.25 998.75 246.25 953.75C201.25 908.75 165.625 855.833 139.375 795C113.125 734.167 100 669.167 100 600C100 530.833 113.125 465.833 139.375 405C165.625 344.167 201.25 291.25 246.25 246.25C291.25 201.25 344.167 165.625 405 139.375C465.833 113.125 530.833 100 600 100C669.167 100 734.167 113.125 795 139.375C855.833 165.625 908.75 201.25 953.75 246.25C998.75 291.25 1034.38 344.167 1060.62 405C1086.88 465.833 1100 530.833 1100 600C1100 669.167 1086.88 734.167 1060.62 795C1034.38 855.833 998.75 908.75 953.75 953.75C908.75 998.75 855.833 1034.38 795 1060.62C734.167 1086.88 669.167 1100 600 1100ZM600 1000C711.667 1000 806.25 961.25 883.75 883.75C961.25 806.25 1000 711.667 1000 600C1000 488.333 961.25 393.75 883.75 316.25C806.25 238.75 711.667 200 600 200C488.333 200 393.75 238.75 316.25 316.25C238.75 393.75 200 488.333 200 600C200 711.667 238.75 806.25 316.25 883.75C393.75 961.25 488.333 1000 600 1000Z" fill="#DA145B"/>
</svg>
